<?xml version="1.0" encoding="UTF-8" standalone="no"?>
<!-- Generator: Adobe Illustrator 17.0.0, SVG Export Plug-In . SVG Version: 6.00 Build 0)  -->

<svg
   xmlns:dc="http://purl.org/dc/elements/1.1/"
   xmlns:cc="http://creativecommons.org/ns#"
   xmlns:rdf="http://www.w3.org/1999/02/22-rdf-syntax-ns#"
   xmlns:svg="http://www.w3.org/2000/svg"
   xmlns="http://www.w3.org/2000/svg"
   xmlns:sodipodi="http://sodipodi.sourceforge.net/DTD/sodipodi-0.dtd"
   xmlns:inkscape="http://www.inkscape.org/namespaces/inkscape"
   version="1.1"
   id="Layer_1"
   x="0px"
   y="0px"
   width="100px"
   height="100px"
   viewBox="0 0 100 100"
   enable-background="new 0 0 100 100"
   xml:space="preserve"
   sodipodi:docname="fi-shopping-cart-b.svg"
   inkscape:version="0.92.4 (5da689c313, 2019-01-14)"><metadata
   id="metadata38"><rdf:RDF><cc:Work
       rdf:about=""><dc:format>image/svg+xml</dc:format><dc:type
         rdf:resource="http://purl.org/dc/dcmitype/StillImage" /><dc:title></dc:title></cc:Work></rdf:RDF></metadata><defs
   id="defs36">
	
	
	
</defs><sodipodi:namedview
   pagecolor="#ffffff"
   bordercolor="#666666"
   borderopacity="1"
   objecttolerance="10"
   gridtolerance="10"
   guidetolerance="10"
   inkscape:pageopacity="0"
   inkscape:pageshadow="2"
   inkscape:window-width="1920"
   inkscape:window-height="1057"
   id="namedview34"
   showgrid="false"
   inkscape:zoom="8.88"
   inkscape:cx="31.70045"
   inkscape:cy="50"
   inkscape:window-x="-8"
   inkscape:window-y="-8"
   inkscape:window-maximized="1"
   inkscape:current-layer="Layer_1" />
<circle
   id="circle25"
   r="5.8889999"
   cy="81.019997"
   cx="32.960999"
   style="fill:#ffffff" /><circle
   id="circle27"
   r="5.8889999"
   cy="81.019997"
   cx="74.308998"
   style="fill:#ffffff" /><path
   inkscape:connector-curvature="0"
   id="path29"
   d="m 73.513,55.216 c 1.377,0 2.556,-0.812 3.11,-1.978 l 0.003,0.002 14.589,-25.27 -0.018,-0.01 c 0.214,-0.449 0.344,-0.946 0.344,-1.477 0,-1.907 -1.545,-3.452 -3.452,-3.452 v 0 H 73.513 44.929 34.499 v -6.488 0 c 0,-1.907 -1.545,-3.452 -3.452,-3.452 v 0 0 H 12.186 v 0.028 c -0.092,-0.008 -0.181,-0.028 -0.275,-0.028 -1.763,0 -3.202,1.327 -3.41,3.035 H 8.459 v 3.452 0 c 0,1.907 1.545,3.452 3.452,3.452 0.094,0 0.183,-0.021 0.275,-0.028 v 0.028 h 12.373 v 43.733 h 10e-4 c 0.005,1.902 1.548,3.442 3.451,3.442 0,0 0.001,0 0.002,0 v 0 H 87.267 V 70.12 c 1.633,-0.103 2.948,-1.329 3.185,-2.922 h 0.049 v -0.49 c 0,-0.006 0.002,-0.012 0.002,-0.018 0,-0.006 -0.002,-0.012 -0.002,-0.018 V 63.67 c 0,-0.006 0.002,-0.012 0.002,-0.018 0,-1.833 -1.432,-3.316 -3.236,-3.429 V 60.201 H 34.498 v -4.988 h 39.015 z"
   style="fill:#ffffff" />
</svg>