<?xml version="1.0" encoding="UTF-8" standalone="no"?>
<!-- Generator: Adobe Illustrator 17.0.0, SVG Export Plug-In . SVG Version: 6.00 Build 0)  -->

<svg
   xmlns:dc="http://purl.org/dc/elements/1.1/"
   xmlns:cc="http://creativecommons.org/ns#"
   xmlns:rdf="http://www.w3.org/1999/02/22-rdf-syntax-ns#"
   xmlns:svg="http://www.w3.org/2000/svg"
   xmlns="http://www.w3.org/2000/svg"
   xmlns:sodipodi="http://sodipodi.sourceforge.net/DTD/sodipodi-0.dtd"
   xmlns:inkscape="http://www.inkscape.org/namespaces/inkscape"
   version="1.1"
   id="Layer_1"
   x="0px"
   y="0px"
   width="100px"
   height="100px"
   viewBox="0 0 100 100"
   enable-background="new 0 0 100 100"
   xml:space="preserve"
   sodipodi:docname="fi-torso-b.svg"
   inkscape:version="0.92.4 (5da689c313, 2019-01-14)"><metadata
   id="metadata4572"><rdf:RDF><cc:Work
       rdf:about=""><dc:format>image/svg+xml</dc:format><dc:type
         rdf:resource="http://purl.org/dc/dcmitype/StillImage" /><dc:title></dc:title></cc:Work></rdf:RDF></metadata><defs
   id="defs4570" /><sodipodi:namedview
   pagecolor="#ffffff"
   bordercolor="#666666"
   borderopacity="1"
   objecttolerance="10"
   gridtolerance="10"
   guidetolerance="10"
   inkscape:pageopacity="0"
   inkscape:pageshadow="2"
   inkscape:window-width="1920"
   inkscape:window-height="1057"
   id="namedview4568"
   showgrid="false"
   inkscape:zoom="2.36"
   inkscape:cx="50"
   inkscape:cy="50"
   inkscape:window-x="-8"
   inkscape:window-y="-8"
   inkscape:window-maximized="1"
   inkscape:current-layer="Layer_1" />
<g
   id="g4565"
   style="fill:#ffffff">
	<path
   d="M80.161,60.441l-15.66-7.47l-6.622-3.159c2.892-1.822,5.241-4.634,6.778-8.022c1.22-2.69,1.946-5.734,1.946-8.99   c0-1.827-0.29-3.562-0.694-5.236C63.94,19.453,57.605,13.477,50,13.477c-7.461,0-13.701,5.763-15.792,13.645   c-0.482,1.808-0.815,3.688-0.815,5.68c0,3.459,0.808,6.684,2.181,9.489c1.587,3.254,3.94,5.937,6.804,7.662l-6.342,2.953   l-16.168,7.53c-1.404,0.658-2.327,2.242-2.327,4.011v15.062v2.703c0,2.381,1.659,4.312,3.708,4.312h57.505   c2.048,0,3.708-1.93,3.708-4.312v-2.703V64.446C82.46,62.683,81.552,61.114,80.161,60.441z"
   id="path4563"
   style="fill:#ffffff" />
</g>
</svg>